<svg width="65" height="64" viewBox="0 0 65 64" fill="none" xmlns="http://www.w3.org/2000/svg">
<path fill-rule="evenodd" clip-rule="evenodd" d="M56.7854 0.0636074C61.4194 -0.542459 65.2285 3.26669 64.6225 7.90067C63.6727 15.1629 61.0743 27.3737 53.8075 35.2089C51.3246 37.8859 48.2852 40.3494 45.182 42.5154L45.5439 42.4637L46.4162 48.5693C46.6329 50.0868 46.1226 51.6179 45.0387 52.7018L35.2261 62.5144C32.3883 65.3522 27.5287 63.7323 26.9611 59.7594L25.6528 50.601L26.1507 50.5299C25.0681 50.1454 24.0636 49.5173 23.2225 48.6762L16.0099 41.4636C15.1688 40.6225 14.5406 39.6179 14.1562 38.5353L14.085 39.0334L4.92658 37.725C0.953674 37.1575 -0.666194 32.2979 2.17159 29.4601L11.9842 19.6475C13.0681 18.5635 14.5992 18.0532 16.1167 18.27L22.2223 19.1422L22.1804 19.4355L22.2236 19.4283C24.3768 16.3514 26.8219 13.3413 29.4772 10.8786C37.3123 3.61175 49.5232 1.01341 56.7854 0.0636074ZM9.05912 42.5435C9.75673 43.2411 9.75673 44.3721 9.05912 45.0698L4.69796 49.4309C4.00034 50.1285 2.86928 50.1285 2.17166 49.4309C1.47404 48.7333 1.47404 47.6022 2.17166 46.9046L6.53282 42.5435C7.23044 41.8458 8.3615 41.8458 9.05912 42.5435ZM15.6009 49.0852C16.2985 49.7828 16.2985 50.9139 15.6009 51.6115L6.87854 60.3338C6.18092 61.0314 5.04986 61.0314 4.35224 60.3338C3.65462 59.6362 3.65462 58.5051 4.35224 57.8075L13.0746 49.0852C13.7722 48.3876 14.9032 48.3876 15.6009 49.0852ZM22.1426 55.6269C22.8402 56.3246 22.8402 57.4556 22.1426 58.1532L17.7814 62.5144C17.0838 63.212 15.9527 63.212 15.2551 62.5144C14.5575 61.8168 14.5575 60.6857 15.2551 59.9881L19.6163 55.6269C20.3139 54.9293 21.445 54.9293 22.1426 55.6269ZM38.3238 26.3619C35.9152 23.9533 35.9152 20.0482 38.3238 17.6396C40.7324 15.231 44.6375 15.231 47.0461 17.6396C49.4547 20.0482 49.4547 23.9533 47.0461 26.3619C44.6375 28.7705 40.7324 28.7705 38.3238 26.3619Z" fill="#F7931A"/>
</svg>
