<svg width="327" height="63" viewBox="0 0 327 63" fill="none" xmlns="http://www.w3.org/2000/svg">
<g clip-path="url(#clip0_182_290)">
<path d="M308.367 16.5442C309.746 15.2242 311.486 14.3401 313.368 14.0028C316.453 13.4392 319.456 13.6365 322.218 15.2837C324.658 16.7312 326.054 18.9266 326.527 21.6883C326.654 22.4958 326.716 23.3122 326.712 24.1297C326.728 29.1841 326.712 34.2385 326.712 39.2955V39.708H320.932V38.8395C320.932 37.3665 320.932 35.8935 320.932 34.4204C320.917 31.8193 320.9 29.2208 320.881 26.6248C320.881 25.5719 320.881 24.5165 320.819 23.4661C320.716 21.7882 320.078 20.3536 318.605 19.4287C317.97 19.0322 317.247 18.7955 316.499 18.739C315.751 18.6825 315.001 18.8078 314.313 19.1042C313.625 19.4006 313.019 19.8592 312.548 20.4405C312.077 21.0219 311.755 21.7085 311.609 22.4414C311.489 23.0525 311.426 23.6734 311.421 24.2962C311.39 26.5249 311.396 28.7563 311.383 30.9876C311.372 33.3906 311.36 35.7944 311.344 38.1991C311.344 38.7396 311.344 39.2776 311.344 39.8361H305.541C305.541 39.7438 305.523 39.6465 305.523 39.5492C305.51 37.2153 305.505 34.8841 305.492 32.5503C305.477 29.7887 305.466 27.0271 305.438 24.2654C305.425 22.9102 305.168 21.6216 304.284 20.5303C303.915 20.0622 303.451 19.6764 302.923 19.398C302.395 19.1195 301.815 18.9546 301.219 18.9138C298.012 18.6167 296.189 20.9633 296.058 23.479C295.971 25.1518 295.999 26.8324 295.984 28.5103C295.971 30.1473 295.966 31.7843 295.956 33.4213C295.945 35.4708 295.932 37.527 295.917 39.5901C295.917 39.6619 295.917 39.731 295.904 39.8284H290.15C290.15 39.7259 290.129 39.6183 290.129 39.5082C290.129 34.1284 290.083 28.764 290.165 23.3919C290.217 19.9872 291.646 17.2435 294.624 15.3939C295.963 14.5865 297.469 14.0924 299.028 13.949C300.939 13.7103 302.879 13.878 304.721 14.4409C305.988 14.8396 307.157 15.4965 308.156 16.37C308.225 16.4237 308.282 16.4724 308.367 16.5442Z" fill="white"/>
<path d="M200.312 39.9334C194.098 26.5915 187.919 13.3214 181.723 0.0281918C181.849 0.0205064 181.946 1.19777e-05 182.041 1.19777e-05C184.129 1.19777e-05 186.217 0.012821 188.305 1.19777e-05C188.403 -0.0135064 188.503 0.00890812 188.585 0.063092C188.668 0.117276 188.728 0.199546 188.755 0.294619C189.968 3.1126 191.195 5.9434 192.411 8.77163C192.436 8.85801 192.49 8.93283 192.565 8.98262C192.64 9.03241 192.73 9.05388 192.82 9.04318C197.818 9.04318 202.817 9.04318 207.815 9.04318C207.905 9.05156 207.995 9.02782 208.069 8.9762C208.143 8.92457 208.196 8.84843 208.219 8.76138C209.425 5.9562 210.641 3.15359 211.844 0.345855C211.873 0.235204 211.941 0.138622 212.035 0.0740666C212.13 0.00951098 212.245 -0.0186255 212.358 -0.00511163C214.415 0.012821 216.472 -0.00511163 218.529 -0.00511163H218.91C212.708 13.3214 206.53 26.5813 200.312 39.9334ZM200.312 27.0424C202.195 22.6873 204.035 18.4271 205.892 14.1412H194.735L200.312 27.0424Z" fill="white"/>
<path d="M286.113 26.8989C286.113 28.1798 286.141 29.4377 286.113 30.7058C286.005 34.9891 283.285 38.4065 279.109 39.5466C277.998 39.8443 276.851 39.9916 275.7 39.9846C273.972 39.9846 272.244 40.0154 270.516 39.9846C268.094 39.9283 265.857 39.2801 263.957 37.7123C262.239 36.3258 261.106 34.3475 260.782 32.1686C260.658 31.3503 260.596 30.5239 260.597 29.6964C260.573 27.5676 260.55 25.4387 260.597 23.3124C260.681 20.2664 261.79 17.6764 264.271 15.7807C265.674 14.7108 267.345 14.0461 269.102 13.8593C270.131 13.7415 271.159 13.7338 272.205 13.7185C273.553 13.698 274.9 13.6851 276.247 13.7185C278.785 13.8004 281.094 14.5382 283.023 16.2418C284.63 17.673 285.678 19.6252 285.979 21.7523C286.237 23.3073 286.087 24.8751 286.126 26.4378C286.126 26.5915 286.126 26.7452 286.126 26.8989H286.113ZM266.485 26.8374C266.485 27.8212 266.485 28.8049 266.485 29.7861C266.479 30.5336 266.607 31.2763 266.863 31.979C267.156 32.8498 267.717 33.6064 268.467 34.1412C269.217 34.6761 270.116 34.962 271.038 34.9584C272.619 34.9763 274.206 34.984 275.787 34.9584C276.901 34.9503 277.966 34.5047 278.752 33.7184C279.244 33.2289 279.631 32.6456 279.892 32.0034C280.153 31.3613 280.281 30.6734 280.269 29.9808C280.3 27.9125 280.3 25.8452 280.269 23.7787C280.243 23.1537 280.133 22.5351 279.942 21.9393C279.686 21.0073 279.126 20.1866 278.351 19.6065C277.575 19.0263 276.628 18.7195 275.659 18.7345C274.054 18.7191 272.45 18.7114 270.845 18.7345C269.774 18.7497 268.751 19.1808 267.994 19.9359C267.053 20.8586 266.513 22.1124 266.49 23.4277C266.449 24.5702 266.487 25.7077 266.487 26.8426L266.485 26.8374Z" fill="white"/>
<path d="M215.688 18.9087L216.616 16.7824C217.007 15.8832 217.388 14.9891 217.786 14.0822C217.848 13.9362 217.915 13.8517 218.097 13.8542C219.259 13.8721 220.411 13.8312 221.581 13.9003C223.214 13.9678 224.813 14.3886 226.266 15.1336C227.719 15.8786 228.992 16.9299 229.997 18.2144C230.035 18.2631 230.074 18.3092 230.115 18.3553C230.132 18.3645 230.15 18.3722 230.169 18.3784C230.336 18.1888 230.506 17.989 230.683 17.7943C232.516 15.7302 235.033 14.3918 237.775 14.0233C240.106 13.6442 242.495 13.8341 244.737 14.5766C244.863 14.5985 244.976 14.6694 245.049 14.7736C245.123 14.8778 245.152 15.0069 245.131 15.1326C245.11 16.9258 245.115 18.7191 245.113 20.5123V20.8223C244.92 20.6814 244.763 20.5661 244.619 20.4585C243.793 19.7122 242.771 19.214 241.673 19.0214C239.119 18.6397 236.787 19.0624 234.951 21.0247C233.844 22.2377 233.158 23.7737 232.995 25.4054C232.75 27.0288 232.918 28.6873 233.483 30.2293C234.411 32.6322 236.078 34.2334 238.687 34.6791C240.744 35.0275 242.678 34.738 244.377 33.4264C244.604 33.2522 244.84 33.0908 245.105 32.8987C245.118 32.9835 245.127 33.069 245.131 33.1548C245.131 34.9353 245.131 36.7157 245.131 38.4962C245.142 38.5798 245.122 38.6644 245.074 38.7342C245.027 38.804 244.956 38.8542 244.874 38.8753C241.495 40.2029 237.729 40.1587 234.383 38.7524C232.735 37.9945 231.295 36.8521 230.184 35.422L230.082 35.2965C229.878 35.5245 229.688 35.7448 229.493 35.96C227.735 37.9117 225.359 39.2038 222.761 39.6208C220.626 40.0059 218.431 39.9184 216.333 39.3647C215.979 39.2699 215.516 39.2314 215.305 38.9932C215.094 38.7549 215.223 38.3169 215.22 37.9685C215.22 36.3315 215.22 34.6945 215.22 32.9934C215.477 33.1753 215.711 33.3162 215.914 33.4904C218.033 35.3042 222.013 35.1249 224.086 33.6928C225.473 32.7472 226.476 31.3391 226.914 29.722C227.541 27.5112 227.51 25.3029 226.626 23.1689C225.685 20.8992 224.008 19.4389 221.532 19.0086C220.962 18.9333 220.387 18.9041 219.812 18.9215C218.506 18.9215 217.2 18.9215 215.894 18.9215C215.84 18.9266 215.781 18.9163 215.688 18.9087Z" fill="white"/>
<path d="M250.296 14.4025H256.11V39.8361H250.296V14.4025Z" fill="white"/>
</g>
<g clip-path="url(#clip1_182_290)">
<path d="M49.6432 1.31158L39.4839 32.3664H31.7645L24.9325 11.3379L17.8787 32.3664H10.2036L0 1.31158H7.45314L14.4625 23.1387L21.7827 1.31158H28.4372L35.5354 23.3161L42.7668 1.31158H49.6432Z" fill="white"/>
<path d="M49.6243 20.4324C49.6243 13.2456 55.1697 8.14355 62.756 8.14355C70.3423 8.14355 75.8432 13.2456 75.8432 20.4324C75.8432 27.6191 70.342 32.7212 62.756 32.7212C55.17 32.7212 49.6243 27.6194 49.6243 20.4324ZM68.8339 20.4324C68.8339 16.3067 66.2164 13.8221 62.756 13.8221C59.2956 13.8221 56.6338 16.3067 56.6338 20.4324C56.6338 24.558 59.2956 27.0426 62.756 27.0426C66.2164 27.0426 68.8339 24.5583 68.8339 20.4324Z" fill="white"/>
<path d="M117.911 9.93753H124.034V15.2611H118.089V32.3664H111.168V15.2611H107.486V9.93753H111.168V8.87265C111.168 3.5047 114.451 0 120.396 0C122.348 0 124.389 0.399188 125.675 1.2864L123.856 6.29958C123.102 5.76714 122.126 5.45678 121.061 5.45678C119.021 5.45678 117.911 6.5658 117.911 8.91707V9.93753Z" fill="white"/>
<path d="M87.1926 29.6219L98.2366 1.32465H89.3995L78.2725 32.3902H90.0531L80.7741 62.336L97.1978 29.6219H87.1926Z" fill="white"/>
<path d="M105.695 1.32465H98.2367L87.1927 29.6219H97.1979L80.7742 62.336L105.217 26.7826H94.4228L105.695 1.32465Z" fill="#F2F2F2"/>
</g>
<defs>
<clipPath id="clip0_182_290">
<rect width="145" height="40" fill="white" transform="translate(181.723)"/>
</clipPath>
<clipPath id="clip1_182_290">
<rect width="125.675" height="62.336" fill="white"/>
</clipPath>
</defs>
</svg>
