<svg width="76" height="63" viewBox="0 0 76 63" fill="none" xmlns="http://www.w3.org/2000/svg">
<path d="M70.3503 9.05641L44.7749 34.6318L50.4245 40.2815L76 14.706L70.3503 9.05641Z" fill="#F7931A"/>
<path d="M37.5251 21.8995H37.5382L26.4071 10.7554L20.7503 16.4121L26.2507 21.8995L19.1602 28.99L24.8169 34.6337L37.5382 21.9125L37.5251 21.8995Z" fill="#F7931A"/>
<path d="M60.8304 0.00507794L53.6416 7.19385L60.8304 14.3826L68.0191 7.19385L60.8304 0.00507794Z" fill="#F7931A"/>
<path d="M52.9443 10.7554L47.5873 5.39844L36.5866 16.3992L41.9436 21.7562L29.0659 34.6338L34.7097 40.2775L58.588 16.3992L52.9443 10.7554ZM47.5873 19.019L44.9805 16.4122L47.5873 13.8054L50.1941 16.4122L47.5873 19.019Z" fill="#F7931A"/>
<path d="M11.0007 10.9116L0 21.9124L11.0007 32.9131L22.0015 21.9124L11.0007 10.9116ZM11.0007 24.5192L8.39392 21.9124L11.0007 19.3055L13.6075 21.9124L11.0007 24.5192Z" fill="#F7931A"/>
<path d="M17.6091 53.8852L11.3528 59.8809H16.6315L16.2796 61.9142H7.9248L8.31583 59.7505L14.6504 53.7027H9.42372L9.77564 51.6694H18.0001L17.6091 53.8852Z" fill="#F7931A"/>
<path d="M27.1892 61.9143H25.1949V60.7543C24.5432 61.7188 23.3962 62.175 22.4317 62.175C21.402 62.175 20.5157 61.8361 19.8119 61.0931C18.9647 60.2068 18.6519 59.0077 18.6519 57.8216C18.6519 56.0881 19.2645 54.0157 20.4897 52.7774C21.3238 51.9432 22.3666 51.4219 23.5396 51.4219C24.8561 51.4219 25.964 52.0084 26.381 52.8165L26.8372 51.6695H29.0009L27.1892 61.9143ZM23.9567 53.4813C23.2659 53.4813 22.7576 53.8201 22.3535 54.2112C21.5193 55.0453 21.1544 56.6355 21.1544 57.7955C21.1544 59.0598 21.7279 60.0765 23.0834 60.0765C23.7482 60.0765 24.2304 59.7246 24.6214 59.3335C25.4947 58.4472 25.8466 56.9613 25.8466 55.7492C25.8466 54.5761 25.3123 53.4813 23.9567 53.4813Z" fill="#F7931A"/>
<path d="M40.8356 61.914H38.5808L37.4207 54.9148L33.9276 61.914H31.6466L30.8516 51.6562H33.1325L33.5887 58.3818L36.8472 51.7605H38.8805L39.9493 58.3688L42.7125 51.6693H45.1629L40.8356 61.914Z" fill="#F7931A"/>
<path d="M53.961 61.9143H51.9537V60.7543C51.3411 61.784 50.1159 62.175 49.1905 62.175C48.1608 62.175 47.2745 61.8231 46.5707 61.0671C45.7235 60.1808 45.4106 58.9947 45.4106 57.8086C45.4106 55.645 46.2579 53.2337 48.1348 52.0345C48.7474 51.6435 49.4512 51.4089 50.2984 51.4089C51.6148 51.4089 52.6836 51.9824 53.1138 52.7514L54.0261 47.6812H56.4765L53.961 61.9143ZM50.6112 53.4813C50.0247 53.4813 49.5033 53.7941 49.1123 54.1851C48.3042 54.9933 47.9132 56.5964 47.9132 57.7304C47.9132 58.9686 48.4215 60.0765 49.8422 60.0765C50.507 60.0765 50.9892 59.7376 51.3802 59.3466C52.1883 58.5124 52.6054 56.9744 52.6054 55.8144C52.6054 54.524 52.058 53.4813 50.6112 53.4813Z" fill="#F7931A"/>
<path d="M65.6005 61.9143H63.6063V60.7543C62.9546 61.7188 61.8076 62.175 60.8431 62.175C59.8134 62.175 58.9271 61.8361 58.2233 61.0931C57.3761 60.2068 57.0632 59.0077 57.0632 57.8216C57.0632 56.0881 57.6758 54.0157 58.901 52.7774C59.7352 51.9432 60.7779 51.4219 61.951 51.4219C63.2674 51.4219 64.3753 52.0084 64.7924 52.8165L65.2486 51.6695H67.4123L65.6005 61.9143ZM62.3681 53.4813C61.6773 53.4813 61.169 53.8201 60.7649 54.2112C59.9307 55.0453 59.5658 56.6355 59.5658 57.7955C59.5658 59.0598 60.1393 60.0765 61.4948 60.0765C62.1595 60.0765 62.6418 59.7246 63.0328 59.3335C63.9061 58.4472 64.258 56.9613 64.258 55.7492C64.258 54.5761 63.7236 53.4813 62.3681 53.4813Z" fill="#F7931A"/>
</svg>
