<svg width="67" height="66" viewBox="0 0 67 66" fill="none" xmlns="http://www.w3.org/2000/svg">
<path fill-rule="evenodd" clip-rule="evenodd" d="M18.3393 0C8.65845 0 0.810547 7.84791 0.810547 17.5288V48.0136C0.810547 57.6945 8.65845 65.5424 18.3393 65.5424H48.8242C58.5051 65.5424 66.353 57.6945 66.353 48.0136V17.5288C66.353 7.84791 58.5051 0 48.8242 0H18.3393ZM30.9798 32.009C29.9846 28.4902 26.7494 25.9119 22.912 25.9119C18.2821 25.9119 14.5287 29.6653 14.5287 34.2953C14.5287 38.9253 18.2821 42.6786 22.912 42.6786C26.7494 42.6786 29.9845 40.1004 30.9798 36.5817L50.3484 36.5817C51.6111 36.5817 52.6348 35.5581 52.6348 34.2953L52.6346 34.267V28.1983C52.6346 26.9356 51.611 25.912 50.3482 25.912C49.0855 25.912 48.0619 26.9356 48.0619 28.1983V32.009H45.0137V28.1983C45.0137 26.9356 43.9901 25.912 42.7273 25.912C41.4646 25.912 40.441 26.9356 40.441 28.1983V32.009L30.9798 32.009ZM26.7226 34.2953C26.7226 32.1907 25.0166 30.4847 22.912 30.4847C20.8075 30.4847 19.1014 32.1907 19.1014 34.2953C19.1014 36.3998 20.8075 38.1059 22.912 38.1059C25.0166 38.1059 26.7226 36.3998 26.7226 34.2953Z" fill="#F7931A"/>
</svg>
