<svg width="327" height="47" viewBox="0 0 327 47" fill="none" xmlns="http://www.w3.org/2000/svg">
<path d="M61.1045 15.5896H91.684V0H61.1045V15.5896Z" fill="white"/>
<path d="M0 0V15.5896H15.2625V46.7687H30.525V15.5896H45.842V0H0Z" fill="white"/>
<path d="M45.842 46.7686H91.684V31.1791H61.1045V15.5895H45.842V46.7686Z" fill="white"/>
<path d="M130.658 11.7739H108.2V18.2605H115.722V38.5923H123.136V18.2605H130.658V11.7739Z" fill="white"/>
<path d="M139.107 18.0424C133.819 18.0424 129.895 21.5855 129.895 28.5626C129.895 34.7221 133.22 39.0284 139.27 39.0284C142.432 39.0284 144.994 38.2107 147.447 36.739L144.83 32.3238C142.813 33.3594 141.396 33.741 139.597 33.741C137.744 33.741 136.436 32.7598 136.163 30.525H147.992C148.046 30.1979 148.046 29.7618 148.046 29.1622C148.101 21.6945 144.667 18.0424 139.107 18.0424ZM136.272 26.2188C136.49 24.2019 137.362 23.1663 138.943 23.1663C140.96 23.1663 141.669 24.2019 141.996 26.2188H136.272Z" fill="white"/>
<path d="M161.183 33.4139C159.329 33.4139 158.348 31.7787 158.348 28.5626C158.348 25.4011 159.22 23.6023 161.019 23.6023C162.491 23.6023 163.145 24.42 164.126 26.2188L168.868 22.6212C167.124 19.7867 164.944 18.0424 161.128 18.0424C154.696 18.0424 151.535 22.2941 151.535 28.4536C151.535 35.2127 155.078 38.9738 160.965 38.9738C164.508 38.9738 166.688 37.6111 169.032 34.1771L164.671 30.743C163.363 32.7053 162.491 33.4139 161.183 33.4139Z" fill="white"/>
<path d="M184.949 18.0424C182.55 18.0424 181.133 18.8601 179.879 19.7867V10.6837L172.957 13.4637V38.6468H179.879V27.1454C179.879 24.638 180.752 23.9294 182.223 23.9294C183.641 23.9294 184.513 24.638 184.513 27.1999V38.6468H191.435V26.3278C191.435 21.0404 189.309 18.0424 184.949 18.0424Z" fill="white"/>
<path d="M208.06 32.5419C204.844 32.5419 203.536 29.2713 203.536 25.1831C203.536 20.9315 204.899 17.8244 208.006 17.8244C210.459 17.8244 211.386 19.4052 212.312 21.9126L219.071 19.2417C217.218 14.1724 214.602 11.3379 208.006 11.3379C200.811 11.3379 195.741 16.5707 195.741 25.1831C195.741 33.1415 199.993 39.0284 207.951 39.0284C214.329 39.0284 217.327 35.5943 219.126 32.1058L212.857 28.7807C211.386 31.2882 210.404 32.5419 208.06 32.5419Z" fill="white"/>
<path d="M230.246 19.9502V18.4785H223.323V38.5923H230.246V27.636C230.246 25.1831 231.281 24.3655 232.971 24.3655C234.334 24.3655 235.315 25.0741 236.187 26.0552L237.822 18.9146C237.005 18.424 236.024 18.0424 234.552 18.0424C232.753 18.0424 231.39 18.8055 230.246 19.9502Z" fill="white"/>
<path d="M252.594 29.9799C252.594 32.4873 251.722 33.1959 250.305 33.1959C248.888 33.1959 248.016 32.4873 248.016 29.9254V18.4785H241.093V30.7975C241.093 36.0849 243.219 39.0284 247.634 39.0284C249.978 39.0284 251.45 38.2107 252.649 37.2841V38.6468H259.572V18.533H252.649V29.9799" fill="white"/>
<path d="M276.524 18.0424C274.125 18.0424 272.708 18.8601 271.454 19.7867V18.424H264.532V38.5378H271.454V27.0364C271.454 24.529 272.327 23.8204 273.798 23.8204C275.215 23.8204 276.088 24.529 276.088 27.0909V38.5378H283.01V26.2188C283.01 21.0404 280.939 18.0424 276.524 18.0424Z" fill="white"/>
<path d="M296.747 33.4139C294.893 33.4139 293.912 31.7787 293.912 28.5626C293.912 25.4011 294.784 23.6023 296.529 23.6023C298 23.6023 298.654 24.42 299.636 26.2188L304.378 22.6212C302.634 19.7867 300.453 18.0424 296.638 18.0424C290.205 18.0424 287.044 22.2941 287.044 28.4536C287.044 35.2127 290.587 38.9738 296.474 38.9738C300.017 38.9738 302.197 37.6111 304.541 34.1771L300.181 30.743C298.981 32.7053 298.055 33.4139 296.747 33.4139Z" fill="white"/>
<path d="M320.512 18.0424C318.114 18.0424 316.697 18.8601 315.443 19.7867V10.6837L308.521 13.4637V38.6468H315.443V27.1454C315.443 24.638 316.315 23.9294 317.787 23.9294C319.204 23.9294 320.076 24.638 320.076 27.1999V38.6468H326.999V26.3278C327.054 21.0404 324.928 18.0424 320.512 18.0424Z" fill="white"/>
</svg>
