<svg width="20" height="20" viewBox="0 0 20 20" fill="none" xmlns="http://www.w3.org/2000/svg">
<path d="M10 18C14.4183 18 18 14.4183 18 10C18 5.58172 14.4183 2 10 2C5.58172 2 2 5.58172 2 10C2 14.4183 5.58172 18 10 18Z" fill="#F7931A"/>
<path fill-rule="evenodd" clip-rule="evenodd" d="M13.7632 7.27876C14.0898 7.63841 14.077 8.20808 13.7347 8.55118L9.54172 12.7512C9.21039 13.0831 8.68887 13.0829 8.3579 12.7507L6.26491 10.6507C5.9226 10.3072 5.91053 9.73755 6.23748 9.3782C6.56443 9.01885 7.10715 9.00591 7.44946 9.34932L8.95036 10.8556L12.5512 7.24881C12.8939 6.90571 13.4362 6.91911 13.7632 7.27876Z" fill="white"/>
</svg>
