<svg width="66" height="65" viewBox="0 0 66 65" fill="none" xmlns="http://www.w3.org/2000/svg">
<path fill-rule="evenodd" clip-rule="evenodd" d="M17.0846 12.7985C8.18663 12.7985 0.973389 20.0117 0.973389 28.9097V48.2432C0.973389 57.1411 8.18663 64.3544 17.0846 64.3544H49.3071C57.9999 64.3544 65.0848 57.4699 65.4069 48.8558H50.9182C45.241 48.8558 40.6387 44.2535 40.6387 38.5763C40.6387 32.8991 45.241 28.2968 50.9182 28.2968H65.4069C65.0847 19.6828 57.9998 12.7985 49.3071 12.7985H17.0846ZM50.9182 32.7445H65.4183V44.408H50.9182C47.6974 44.408 45.0864 41.7971 45.0864 38.5763C45.0864 35.3555 47.6974 32.7445 50.9182 32.7445ZM13.8627 47.6303C12.6345 47.6303 11.6389 48.626 11.6389 49.8542C11.6389 51.0824 12.6345 52.078 13.8627 52.078H33.1962C34.4244 52.078 35.4201 51.0824 35.4201 49.8542C35.4201 48.626 34.4244 47.6303 33.1962 47.6303H13.8627ZM50.9184 36.3525C49.6902 36.3525 48.6945 37.3482 48.6945 38.5764C48.6945 39.8046 49.6902 40.8002 50.9184 40.8002H51.5629C52.7911 40.8002 53.7867 39.8046 53.7867 38.5764C53.7867 37.3482 52.7911 36.3525 51.5629 36.3525H50.9184Z" fill="#F7931A"/>
<path d="M57.3238 9.5536C55.0003 3.1369 48.2138 -1.00577 41.063 0.466468L13.3494 6.17221C7.56096 7.36394 2.87135 11.1798 0.418457 16.2237C4.24476 11.2043 10.2869 7.96495 17.0856 7.96495H49.308C52.1473 7.96495 54.8547 8.52994 57.3238 9.5536Z" fill="#F7931A"/>
</svg>
